<svg width="70.000000" height="70.000000" viewBox="0 0 70 70" fill="none" xmlns="http://www.w3.org/2000/svg" xmlns:xlink="http://www.w3.org/1999/xlink">
	<desc>
			Created with Pixso.
	</desc>
	<defs>
		<clipPath id="clip59_3866">
			<rect id="antenna 1" width="70.000000" height="70.000000" fill="white" fill-opacity="0"/>
		</clipPath>
	</defs>
	<rect id="antenna 1" width="70.000000" height="70.000000" fill="#FFFFFF" fill-opacity="0"/>
	<g clip-path="url(#clip59_3866)">
		<path id="Vector" d="M67.31 48.33L48.84 29.73L50.89 19.63C51.42 19.84 51.98 19.95 52.55 19.95L52.56 19.95C55.17 19.98 57.31 17.89 57.34 15.28C57.37 12.68 55.28 10.54 52.68 10.51C50.07 10.48 47.93 12.56 47.9 15.17C47.89 15.73 47.98 16.29 48.17 16.81L37.32 18.14L19.62 0.35C19.41 0.12 19.11 0 18.8 0C18.49 0 18.2 0.12 17.98 0.33L14.67 3.62C14.22 4.08 14.22 4.82 14.67 5.27L16.45 7.08C9.56 19.76 11.8 35.47 21.97 45.72C22.06 45.81 22.17 45.88 22.29 45.93C22.21 46.33 22.17 46.73 22.17 47.13L22.17 60.66L8.17 60.66C4.95 60.67 2.34 63.28 2.34 66.5L2.34 68.83C2.34 69.47 2.86 70 3.5 70L57.17 70C57.81 70 58.34 69.47 58.34 68.83L58.34 66.5C58.33 63.28 55.72 60.67 52.5 60.66L38.5 60.66L38.5 54.66C40.7 55.12 42.93 55.36 45.17 55.36C50.55 55.36 55.84 54.02 60.57 51.46L62.36 53.26C62.58 53.48 62.88 53.61 63.19 53.61C63.49 53.61 63.79 53.49 64 53.27L67.31 49.98C67.77 49.53 67.77 48.79 67.31 48.33ZM50.92 13.63C51.83 12.72 53.31 12.73 54.22 13.64C55.13 14.55 55.12 16.03 54.21 16.94C53.77 17.37 53.18 17.62 52.56 17.62L52.56 17.62C51.27 17.61 50.23 16.56 50.24 15.27C50.24 14.66 50.49 14.06 50.92 13.63L50.92 13.63ZM48.17 21.3L46.86 27.74L44.29 25.15L48.17 21.3ZM46.85 19.32L42.65 23.5L39.4 20.23L46.85 19.32ZM52.5 63C54.44 63 56 64.56 56 66.5L56 67.66L4.67 67.66L4.67 66.5C4.67 64.56 6.24 63 8.17 63L52.5 63ZM36.17 58.33L36.17 60.66L24.5 60.66L24.5 58.33L36.17 58.33ZM24.5 56L24.5 47.13C24.5 44.3 27.12 42 30.34 42C33.55 42 36.17 44.3 36.17 47.13L36.17 56L24.5 56ZM38.5 52.29L38.5 47.13C38.5 43.01 34.84 39.66 30.34 39.66C27.43 39.62 24.7 41.1 23.16 43.57C14.28 34.22 12.28 20.28 18.18 8.82L58.87 49.74C52.58 52.94 45.38 53.84 38.5 52.29ZM63.2 50.79L61.56 49.14L18.79 6.11L17.14 4.46L18.79 2.81L36.14 20.27C36.15 20.27 36.16 20.28 36.17 20.29L64.85 49.14L63.2 50.79Z" fill="#212121" fill-opacity="1.000000" fill-rule="nonzero"/>
		<path id="Vector" d="M30.35 44.33L30.34 44.33C28.4 44.33 26.83 45.89 26.83 47.82C26.83 49.76 28.39 51.33 30.33 51.33L30.34 51.33C32.27 51.33 33.84 49.77 33.84 47.83C33.85 45.9 32.28 44.33 30.35 44.33ZM31.16 48.66C30.94 48.87 30.65 49 30.34 49C29.69 48.99 29.17 48.47 29.18 47.82C29.18 47.51 29.3 47.22 29.52 47C29.74 46.79 30.03 46.66 30.34 46.66C30.98 46.66 31.5 47.19 31.5 47.83C31.5 48.14 31.37 48.44 31.15 48.66L31.16 48.66Z" fill="#2196F3" fill-opacity="1.000000" fill-rule="nonzero"/>
	</g>
</svg>
