<svg width="78.000000" height="78.000000" viewBox="0 0 78 78" fill="none" xmlns="http://www.w3.org/2000/svg" xmlns:xlink="http://www.w3.org/1999/xlink">
	<desc>
			Created with Pixso.
	</desc>
	<defs>
		<filter id="filter_59_3895_dd" x="0.000000" y="0.000000" width="78.000000" height="78.000000" filterUnits="userSpaceOnUse" color-interpolation-filters="sRGB">
			<feFlood flood-opacity="0" result="BackgroundImageFix"/>
			<feColorMatrix in="SourceAlpha" type="matrix" values="0 0 0 0 0 0 0 0 0 0 0 0 0 0 0 0 0 0 127 0" result="hardAlpha"/>
			<feOffset dx="0" dy="4"/>
			<feGaussianBlur stdDeviation="1.33333"/>
			<feComposite in2="hardAlpha" operator="out" k2="-1" k3="1"/>
			<feColorMatrix type="matrix" values="0 0 0 0 0 0 0 0 0 0 0 0 0 0 0 0 0 0 0.25 0"/>
			<feBlend mode="normal" in2="BackgroundImageFix" result="effect_dropShadow_1"/>
			<feBlend mode="normal" in="SourceGraphic" in2="effect_dropShadow_1" result="shape"/>
		</filter>
		<clipPath id="clip59_3895">
			<rect id="astronaut 1" width="70.000000" height="70.000000" transform="translate(4.000000 0.000000)" fill="white" fill-opacity="0"/>
		</clipPath>
	</defs>
	<g filter="url(#filter_59_3895_dd)">
		<rect id="astronaut 1" width="70.000000" height="70.000000" transform="translate(4.000000 0.000000)" fill="#FFFFFF" fill-opacity="0"/>
		<g clip-path="url(#clip59_3895)">
			<path id="Vector" d="M73.94 9.89C73.8 9.47 73.44 9.16 73 9.1L68.82 8.49L66.95 4.7C66.56 3.91 65.25 3.91 64.86 4.7L62.99 8.49L58.81 9.1C58.37 9.16 58 9.47 57.86 9.89C57.73 10.31 57.84 10.78 58.16 11.09L61.18 14.04L60.47 18.2C60.4 18.64 60.58 19.08 60.93 19.34C61.3 19.6 61.77 19.64 62.16 19.43L65.9 17.46L69.64 19.43C69.81 19.52 70 19.56 70.18 19.56C70.42 19.56 70.67 19.49 70.87 19.34C71.23 19.08 71.41 18.64 71.33 18.2L70.62 14.04L73.64 11.09C73.96 10.78 74.07 10.31 73.94 9.89ZM68.55 12.79C68.28 13.06 68.15 13.45 68.22 13.83L68.63 16.26L66.44 15.11C66.27 15.02 66.09 14.98 65.9 14.98C65.71 14.98 65.53 15.02 65.36 15.11L63.17 16.26L63.59 13.83C63.65 13.45 63.53 13.06 63.25 12.79L61.48 11.07L63.93 10.71C64.31 10.66 64.64 10.42 64.81 10.07L65.9 7.86L66.99 10.07C67.16 10.42 67.49 10.66 67.87 10.71L70.32 11.07L68.55 12.79Z" fill="#2196F3" fill-opacity="1.000000" fill-rule="nonzero"/>
			<path id="Vector" d="M58.83 44.89L61.16 44.89L61.16 47.22L58.83 47.22L58.83 44.89Z" fill="#2196F3" fill-opacity="1.000000" fill-rule="evenodd"/>
			<path id="Vector" d="M58.83 49.55L61.16 49.55L61.16 51.89L58.83 51.89L58.83 49.55Z" fill="#2196F3" fill-opacity="1.000000" fill-rule="evenodd"/>
			<path id="Vector" d="M61.16 47.22L63.5 47.22L63.5 49.55L61.16 49.55L61.16 47.22Z" fill="#2196F3" fill-opacity="1.000000" fill-rule="evenodd"/>
			<path id="Vector" d="M56.5 47.22L58.83 47.22L58.83 49.55L56.5 49.55L56.5 47.22Z" fill="#2196F3" fill-opacity="1.000000" fill-rule="evenodd"/>
			<path id="Vector" d="M50.66 57.72L53 57.72L53 60.05L50.66 60.05L50.66 57.72Z" fill="#2196F3" fill-opacity="1.000000" fill-rule="evenodd"/>
			<path id="Vector" d="M50.66 62.39L53 62.39L53 64.72L50.66 64.72L50.66 62.39Z" fill="#2196F3" fill-opacity="1.000000" fill-rule="evenodd"/>
			<path id="Vector" d="M53 60.05L55.33 60.05L55.33 62.39L53 62.39L53 60.05Z" fill="#2196F3" fill-opacity="1.000000" fill-rule="evenodd"/>
			<path id="Vector" d="M48.33 60.05L50.66 60.05L50.66 62.39L48.33 62.39L48.33 60.05Z" fill="#2196F3" fill-opacity="1.000000" fill-rule="evenodd"/>
			<path id="Vector" d="M36.66 53.05L39 53.05L39 55.39L36.66 55.39L36.66 53.05Z" fill="#2196F3" fill-opacity="1.000000" fill-rule="evenodd"/>
			<path id="Vector" d="M36.66 57.72L39 57.72L39 60.05L36.66 60.05L36.66 57.72Z" fill="#2196F3" fill-opacity="1.000000" fill-rule="evenodd"/>
			<path id="Vector" d="M39 55.39L41.33 55.39L41.33 57.72L39 57.72L39 55.39Z" fill="#2196F3" fill-opacity="1.000000" fill-rule="evenodd"/>
			<path id="Vector" d="M34.33 55.39L36.66 55.39L36.66 57.72L34.33 57.72L34.33 55.39Z" fill="#2196F3" fill-opacity="1.000000" fill-rule="evenodd"/>
			<path id="Vector" d="M14.49 13.39L16.83 13.39L16.83 15.72L14.49 15.72L14.49 13.39Z" fill="#2196F3" fill-opacity="1.000000" fill-rule="evenodd"/>
			<path id="Vector" d="M14.49 18.05L16.83 18.05L16.83 20.39L14.49 20.39L14.49 18.05Z" fill="#2196F3" fill-opacity="1.000000" fill-rule="evenodd"/>
			<path id="Vector" d="M16.83 15.72L19.16 15.72L19.16 18.05L16.83 18.05L16.83 15.72Z" fill="#2196F3" fill-opacity="1.000000" fill-rule="evenodd"/>
			<path id="Vector" d="M12.16 15.72L14.49 15.72L14.49 18.05L12.16 18.05L12.16 15.72Z" fill="#2196F3" fill-opacity="1.000000" fill-rule="evenodd"/>
			<path id="Vector" d="M58.06 30.97C57.43 30.12 56.51 29.57 55.46 29.43C54.41 29.28 53.37 29.55 52.53 30.2L49.79 32.3L49.79 32.3L45.64 35.4L42.67 34.21C47.96 31.84 51.67 26.54 51.67 20.39C51.67 12.03 44.84 5.22 36.44 5.22C28.04 5.22 21.21 12.03 21.21 20.39C21.21 23.42 22.12 26.24 23.66 28.61L17.62 28.56C17.61 28.56 17.61 28.56 17.6 28.56C17.59 28.56 17.57 28.57 17.55 28.57C17.44 28.57 17.32 28.6 17.21 28.64C17.19 28.65 17.16 28.65 17.13 28.67C17.12 28.67 17.1 28.67 17.09 28.68L10.02 32.17C10.01 32.17 10.01 32.17 10.01 32.17L5.87 34.16C5.83 34.18 5.78 34.21 5.73 34.24C4.08 35.34 3.52 37.5 4.42 39.26C4.91 40.2 5.73 40.89 6.73 41.21C7.12 41.33 7.52 41.39 7.91 41.39C8.55 41.39 9.18 41.23 9.75 40.93L12.79 39.31L17.74 36.75L20.71 36.74L8.8 48.58C8.8 48.58 8.8 48.58 8.8 48.59L5.87 51.5C5.18 52.19 4.8 53.1 4.8 54.08C4.8 55.05 5.18 55.97 5.87 56.66C6.58 57.36 7.52 57.72 8.45 57.72C9.39 57.72 10.32 57.36 11.03 56.66L13.91 53.79L17.72 50.95L19.69 52.91L15.83 56.75C15.83 56.75 15.83 56.75 15.83 56.75L12.9 59.67C12.21 60.36 11.83 61.27 11.83 62.25C11.83 63.22 12.21 64.13 12.9 64.82C13.61 65.53 14.55 65.89 15.48 65.89C16.42 65.89 17.35 65.53 18.06 64.82L20.99 61.91L25.68 57.24C25.68 57.24 25.68 57.24 25.68 57.24L27.89 55.05L27.88 55.04C27.9 55.03 27.92 55.02 27.93 55.01L39.23 42.63L46.82 43.71C46.88 43.72 46.93 43.72 46.99 43.72C47.13 43.72 47.27 43.69 47.4 43.64C47.44 43.62 47.47 43.61 47.51 43.59C47.55 43.57 47.59 43.55 47.63 43.53L54.66 38.86C54.69 38.84 54.7 38.81 54.73 38.8C54.75 38.77 54.79 38.77 54.81 38.74L57.59 36.14C59.04 34.78 59.24 32.56 58.06 30.97ZM8.66 38.87C8.28 39.07 7.85 39.11 7.43 38.98C7.03 38.85 6.69 38.57 6.5 38.2C6.15 37.51 6.35 36.68 6.97 36.22L9.84 34.84L10.53 36.86L10.83 37.71L8.66 38.87ZM16.31 34.87L12.92 36.62L12.36 34.99L11.96 33.81L16.39 31.62L16.31 34.87ZM49.34 20.39C49.34 22.4 48.86 24.29 48.03 25.99L38.88 21.83C38.78 20.58 38.13 19.48 37.15 18.8L40.36 8.16C45.56 9.82 49.34 14.67 49.34 20.39ZM23.55 20.39C23.55 13.31 29.33 7.55 36.44 7.55C36.99 7.55 37.54 7.6 38.07 7.67L34.94 18.07C34.9 18.07 34.86 18.05 34.81 18.05C32.55 18.05 30.72 19.89 30.72 22.14C30.72 24.39 32.55 26.22 34.81 26.22C36.33 26.22 37.64 25.38 38.35 24.15L46.8 27.99C44.45 31.16 40.69 33.22 36.44 33.22C29.33 33.22 23.55 27.46 23.55 20.39ZM36.58 22.14C36.58 23.1 35.79 23.89 34.81 23.89C33.84 23.89 33.05 23.1 33.05 22.14C33.05 21.17 33.84 20.39 34.81 20.39C35.79 20.39 36.58 21.17 36.58 22.14ZM9.39 55C8.87 55.51 8.03 55.51 7.52 55C7.27 54.76 7.13 54.43 7.13 54.08C7.13 53.73 7.27 53.4 7.52 53.16L9.62 51.06L11.48 52.91L9.39 55ZM16.42 63.17C15.9 63.68 15.06 63.68 14.55 63.17C14.3 62.92 14.16 62.59 14.16 62.25C14.16 61.9 14.3 61.57 14.55 61.32L16.65 59.23L17.53 60.1L18.52 61.08L16.42 63.17ZM24.03 55.58C24.03 55.58 24.03 55.58 24.03 55.58L20.17 59.43L19.29 58.56L18.31 57.58L22.16 53.74C22.16 53.74 22.16 53.74 22.16 53.74C22.16 53.74 22.17 53.74 22.17 53.74C22.25 53.65 22.31 53.54 22.36 53.44C22.38 53.41 22.41 53.38 22.42 53.35C22.46 53.26 22.46 53.17 22.48 53.07C22.48 53.02 22.51 52.97 22.51 52.91C22.51 52.83 22.48 52.76 22.46 52.68C22.45 52.61 22.45 52.54 22.42 52.47C22.38 52.36 22.3 52.27 22.22 52.17C22.2 52.15 22.19 52.11 22.17 52.09C22.17 52.09 22.17 52.09 22.17 52.09C22.16 52.09 22.16 52.09 22.16 52.08L18.65 48.58C18.61 48.55 18.56 48.53 18.52 48.5C18.46 48.45 18.4 48.41 18.33 48.37C18.26 48.34 18.2 48.32 18.13 48.3C18.05 48.28 17.98 48.27 17.9 48.26C17.83 48.26 17.76 48.26 17.69 48.27C17.61 48.28 17.54 48.29 17.46 48.31C17.39 48.34 17.33 48.37 17.26 48.41C17.22 48.44 17.17 48.45 17.13 48.48L13.25 51.37L11.28 49.41L16.52 44.19L26.06 53.57L24.03 55.58ZM38.95 40.23C38.92 40.23 38.88 40.24 38.85 40.24C38.77 40.23 38.68 40.24 38.6 40.25C38.53 40.26 38.47 40.28 38.41 40.3C38.33 40.33 38.26 40.36 38.19 40.4C38.13 40.44 38.07 40.48 38.01 40.54C37.98 40.56 37.95 40.57 37.93 40.6L27.65 51.86L18.18 42.55L24.38 36.38C24.83 35.93 24.84 35.19 24.38 34.73C24.15 34.5 23.85 34.39 23.55 34.39L23.55 34.39L18.69 34.42L18.75 30.9L25.54 30.96C28.31 33.79 32.17 35.55 36.44 35.55C37.4 35.55 38.33 35.45 39.24 35.29C39.33 35.36 39.41 35.43 39.52 35.47L44.79 37.57L45.13 39.23L45.52 41.17L38.95 40.23ZM47.79 40.62L47.1 37.21L50.27 34.85L51.1 35.95L52.34 37.6L47.79 40.62ZM56 34.43L54.17 36.15L52.13 33.44L53.95 32.05C54.29 31.79 54.72 31.68 55.14 31.74C55.56 31.79 55.93 32.02 56.19 32.36C56.66 33 56.58 33.89 56 34.43Z" fill="#212121" fill-opacity="1.000000" fill-rule="nonzero"/>
			<path id="Vector" d="M33.75 40.56L29.06 35.89C28.61 35.44 27.87 35.44 27.42 35.89L22.73 40.56C22.51 40.78 22.39 41.08 22.39 41.39C22.39 41.7 22.51 42 22.73 42.21L27.42 46.88C27.64 47.11 27.94 47.22 28.24 47.22C28.54 47.22 28.84 47.11 29.06 46.88L33.75 42.21C33.97 42 34.09 41.7 34.09 41.39C34.09 41.08 33.97 40.78 33.75 40.56ZM28.24 44.41L25.21 41.39L28.24 38.37L31.27 41.39L28.24 44.41Z" fill="#212121" fill-opacity="1.000000" fill-rule="nonzero"/>
			<path id="Vector" d="M41.54 11.09L40.98 13.35C41.13 13.39 44.78 14.34 44.78 18.05L47.11 18.05C47.11 13.64 43.47 11.57 41.54 11.09Z" fill="#212121" fill-opacity="1.000000" fill-rule="nonzero"/>
			<path id="Vector" d="M44.78 20.39L47.11 20.39L47.11 22.72L44.78 22.72L44.78 20.39Z" fill="#212121" fill-opacity="1.000000" fill-rule="evenodd"/>
		</g>
	</g>
</svg>
