<svg width="70.000000" height="70.000000" viewBox="0 0 70 70" fill="none" xmlns="http://www.w3.org/2000/svg" xmlns:xlink="http://www.w3.org/1999/xlink">
	<desc>
			Created with Pixso.
	</desc>
	<defs>
		<clipPath id="clip59_3876">
			<rect id="clock 1" width="70.000000" height="70.000000" fill="white" fill-opacity="0"/>
		</clipPath>
	</defs>
	<rect id="clock 1" width="70.000000" height="70.000000" fill="#FFFFFF" fill-opacity="0"/>
	<g clip-path="url(#clip59_3876)">
		<path id="Vector" d="M68.46 33.47C68.45 14.98 53.46 -0.01 34.97 0C16.48 0 1.5 14.99 1.5 33.48C1.5 48.05 10.92 60.94 24.79 65.37C24.93 65.41 25.06 65.43 25.2 65.43C25.47 65.43 25.73 65.36 25.95 65.22C26.25 65.05 26.47 64.77 26.57 64.44L35.03 37.65C37.34 37.64 39.2 35.75 39.19 33.44C39.18 31.13 37.29 29.27 34.98 29.28C34.36 29.28 33.75 29.42 33.19 29.7L22.02 18.53C21.47 17.99 20.58 18.01 20.05 18.56C19.53 19.1 19.53 19.96 20.05 20.5L31.21 31.67C30.35 33.42 30.84 35.53 32.38 36.73L24.33 62.26C8.41 56.4 0.26 38.74 6.12 22.82C11.99 6.89 29.65 -1.26 45.57 4.61C61.49 10.47 69.64 28.13 63.77 44.05C60.91 51.83 55.02 58.12 47.45 61.49L46.58 57.39C46.42 56.64 45.68 56.16 44.93 56.32C44.69 56.37 44.47 56.48 44.29 56.64L35.89 64.14C35.32 64.65 35.27 65.53 35.78 66.11C35.95 66.29 36.16 66.43 36.4 66.51L47.11 69.93C47.85 70.16 48.63 69.76 48.87 69.03C48.94 68.79 48.96 68.55 48.91 68.31L48.05 64.29C60.44 59.06 68.49 46.91 68.46 33.47ZM34.98 32.07C35.75 32.07 36.37 32.7 36.37 33.47C36.37 34.24 35.75 34.86 34.98 34.86C34.21 34.86 33.58 34.24 33.58 33.47C33.58 32.7 34.21 32.07 34.98 32.07ZM39.57 64.59L44.35 60.32L45.67 66.54L39.57 64.59Z" fill="#212121" fill-opacity="1.000000" fill-rule="nonzero"/>
		<path id="Vector" d="M33.58 6.96L33.58 9.75C33.58 10.52 34.21 11.15 34.98 11.15C35.75 11.15 36.37 10.52 36.37 9.75L36.37 6.96C36.37 6.19 35.75 5.57 34.98 5.57C34.21 5.57 33.58 6.19 33.58 6.96Z" fill="#2196F3" fill-opacity="1.000000" fill-rule="nonzero"/>
		<path id="Vector" d="M8.47 32.07C7.7 32.07 7.08 32.7 7.08 33.47C7.08 34.24 7.7 34.86 8.47 34.86L11.26 34.86C12.03 34.86 12.66 34.24 12.66 33.47C12.66 32.7 12.03 32.07 11.26 32.07L8.47 32.07Z" fill="#2196F3" fill-opacity="1.000000" fill-rule="nonzero"/>
		<path id="Vector" d="M61.48 34.86C62.25 34.86 62.88 34.24 62.88 33.47C62.88 32.7 62.25 32.07 61.48 32.07L58.69 32.07C57.92 32.07 57.3 32.7 57.3 33.47C57.3 34.24 57.92 34.86 58.69 34.86L61.48 34.86Z" fill="#2196F3" fill-opacity="1.000000" fill-rule="nonzero"/>
	</g>
</svg>
