<svg width="70.000000" height="70.000000" viewBox="0 0 70 70" fill="none" xmlns="http://www.w3.org/2000/svg" xmlns:xlink="http://www.w3.org/1999/xlink">
	<desc>
			Created with Pixso.
	</desc>
	<defs>
		<clipPath id="clip59_3885">
			<rect id="diagram 1" width="70.000000" height="70.000000" fill="white" fill-opacity="0"/>
		</clipPath>
	</defs>
	<rect id="diagram 1" width="70.000000" height="70.000000" fill="#FFFFFF" fill-opacity="0"/>
	<g clip-path="url(#clip59_3885)">
		<path id="Vector" d="M32.64 32.73L34.98 32.73L34.98 43.22L32.64 43.22L32.64 32.73Z" fill="#2196F3" fill-opacity="1.000000" fill-rule="nonzero"/>
		<path id="Vector" d="M41.97 37.39L44.31 37.39L44.31 43.22L41.97 43.22L41.97 37.39Z" fill="#2196F3" fill-opacity="1.000000" fill-rule="nonzero"/>
		<path id="Vector" d="M23.32 40.89L25.65 40.89L25.65 43.22L23.32 43.22L23.32 40.89Z" fill="#2196F3" fill-opacity="1.000000" fill-rule="nonzero"/>
		<path id="Vector" d="M16.32 39.73L18.65 39.73L18.65 43.22L16.32 43.22L16.32 39.73Z" fill="#2196F3" fill-opacity="1.000000" fill-rule="nonzero"/>
		<path id="Vector" d="M3.49 61.88L59.46 61.88C61.4 61.88 62.96 60.32 62.96 58.38L62.96 53.72C62.96 51.79 61.4 50.22 59.46 50.22L58.3 50.22L58.3 21.14L64.92 14.87C66.46 15.63 68.32 15.17 69.33 13.78C70.33 12.39 70.19 10.48 68.99 9.25C67.79 8.03 65.89 7.84 64.47 8.82C63.07 9.79 62.56 11.64 63.29 13.2L58.3 17.93L58.3 15.24C58.3 13.31 56.73 11.74 54.8 11.74L8.16 11.74C6.23 11.74 4.66 13.31 4.66 15.24L4.66 50.22L3.49 50.22C1.56 50.22 0 51.79 0 53.72L0 58.38C0 60.32 1.56 61.88 3.49 61.88ZM66.46 10.58C67.1 10.58 67.63 11.1 67.63 11.74C67.63 12.39 67.1 12.91 66.46 12.91C65.82 12.91 65.29 12.39 65.29 11.74C65.29 11.1 65.82 10.58 66.46 10.58ZM6.99 15.24C6.99 14.6 7.51 14.07 8.16 14.07L54.8 14.07C55.44 14.07 55.97 14.6 55.97 15.24L55.97 20.14L53.63 22.35L53.63 17.57C53.63 16.93 53.11 16.41 52.47 16.41L10.49 16.41C9.85 16.41 9.32 16.93 9.32 17.57L9.32 46.72C9.32 47.37 9.85 47.89 10.49 47.89L52.47 47.89C53.11 47.89 53.63 47.37 53.63 46.72L53.63 25.56L55.97 23.35L55.97 50.22L6.99 50.22L6.99 15.24ZM17.49 30.4C15.91 30.39 14.52 31.44 14.1 32.97C13.68 34.49 14.33 36.1 15.69 36.9C17.05 37.71 18.77 37.51 19.91 36.41L23.96 38.44C24.43 38.68 25 38.57 25.35 38.18L33.97 28.48L42.44 34.83C42.89 35.17 43.53 35.13 43.94 34.74L51.3 27.77L51.3 45.56L11.66 45.56L11.66 18.74L51.3 18.74L51.3 24.56L43.05 32.37L34.51 25.97C34.03 25.6 33.34 25.67 32.94 26.12L24.21 35.95L20.94 34.32C20.96 34.18 20.98 34.04 20.98 33.9C20.98 31.96 19.42 30.4 17.49 30.4ZM18.65 33.9C18.65 34.54 18.13 35.06 17.49 35.06C16.84 35.06 16.32 34.54 16.32 33.9C16.32 33.25 16.84 32.73 17.49 32.73C18.13 32.73 18.65 33.25 18.65 33.9ZM25.65 52.55L37.31 52.55L37.31 53.72C37.31 54.36 36.79 54.89 36.14 54.89L26.81 54.89C26.17 54.89 25.65 54.36 25.65 53.72L25.65 52.55ZM2.33 53.72C2.33 53.08 2.85 52.55 3.49 52.55L23.32 52.55L23.32 53.72C23.32 55.65 24.88 57.22 26.81 57.22L36.14 57.22C38.07 57.22 39.64 55.65 39.64 53.72L39.64 52.55L59.46 52.55C60.11 52.55 60.63 53.08 60.63 53.72L60.63 58.38C60.63 59.03 60.11 59.55 59.46 59.55L3.49 59.55C2.85 59.55 2.33 59.03 2.33 58.38L2.33 53.72Z" fill="#212121" fill-opacity="1.000000" fill-rule="nonzero"/>
	</g>
</svg>
