<svg aria-hidden="true" style="position: absolute; width: 0; height: 0; overflow: hidden;" version="1.1" xmlns="http://www.w3.org/2000/svg" xmlns:xlink="http://www.w3.org/1999/xlink">
<defs>
<symbol id="icon-mail" viewBox="0 0 38 32">
<path fill="#757575" style="fill: var(--color1, #757575)" d="M29.6 0h-20.8c-1.328 0-2.4 1.072-2.4 2.4v14.4c0 1.312 1.072 2.4 2.4 2.4h20.8c1.312 0 2.4-1.088 2.4-2.4v-14.4c0-1.328-1.088-2.4-2.4-2.4zM29.6 1.6c0.096 0 0.208 0.016 0.304 0.048l-10.704 9.28-10.72-9.28c0.096-0.032 0.208-0.048 0.304-0.048h20.816zM29.6 17.6h-20.8c-0.448 0-0.8-0.368-0.8-0.8v-13.456l10.672 9.248c0.144 0.128 0.336 0.208 0.528 0.208 0.176 0 0.368-0.080 0.512-0.208l10.688-9.248v13.456c0 0.432-0.368 0.8-0.8 0.8z"></path>
</symbol>
</defs>
</svg>
