<svg aria-hidden="true" style="position: absolute; width: 0; height: 0; overflow: hidden;" version="1.1" xmlns="http://www.w3.org/2000/svg" xmlns:xlink="http://www.w3.org/1999/xlink">
<defs>
<symbol id="icon-user" viewBox="0 0 32 32">
<path d="M16 16c4.4 0 8-3.6 8-8 0-4.427-3.6-8-8-8-4.427 0-8 3.573-8 8 0 4.4 3.573 8 8 8zM16 20c-5.36 0-16 2.667-16 8v2c0 1.093 0.88 2 2 2h28c1.093 0 2-0.907 2-2v-2c0-5.333-10.667-8-16-8z"></path>
</symbol>
<symbol id="icon-send" viewBox="0 0 32 32">
<path fill="#fff" style="fill: var(--color1, #fff)" d="M32 0l-32 18 10.213 3.787 15.787-14.787-12 16.173v8.827l5.733-6.693 7.267 2.693 5-28z"></path>
</symbol>
<symbol id="icon-phone" viewBox="0 0 32 32">
<path d="M28.849 21.809l-4.529-0.517c-1.083-0.123-2.142 0.246-2.905 1.009l-3.298 3.274c-5.068-2.62-9.097-6.649-11.647-11.568l-0.070-0.149 3.274-3.298c0.788-0.763 1.157-1.846 1.034-2.929l-0.517-4.48c-0.217-1.783-1.721-3.151-3.545-3.151h-3.102c-1.994 0-3.668 1.674-3.545 3.668 0.935 15.212 13.095 27.372 28.308 28.308 1.994 0.123 3.692-1.551 3.692-3.569v-3.077c0-1.797-1.354-3.298-3.151-3.52z"></path>
</symbol>
<symbol id="icon-mail" viewBox="0 0 40 32">
<path d="M36 0h-32c-2.213 0-4 1.787-4 4v24c0 2.187 1.787 4 4 4h32c2.187 0 4-1.813 4-4v-24c0-2.213-1.813-4-4-4zM35.2 8.48l-14.16 8.853c-0.299 0.188-0.663 0.3-1.053 0.3s-0.754-0.112-1.062-0.305l0.008 0.005-14.133-8.853c-0.483-0.303-0.8-0.832-0.8-1.436 0-0.002 0-0.003 0-0.005v0c0-1.333 1.44-2.133 2.587-1.44l13.413 8.4 13.387-8.4c1.147-0.693 2.613 0.107 2.613 1.44 0 0.587-0.32 1.12-0.8 1.44z"></path>
</symbol>
<symbol id="icon-close" viewBox="0 0 32 32">
<path d="M32 3.2l-3.229-3.2-12.771 12.771-12.8-12.771-3.2 3.2 12.771 12.8-12.771 12.771 3.2 3.229 12.8-12.8 12.771 12.8 3.229-3.229-12.8-12.771 12.8-12.8z"></path>
</symbol>
</defs>
</svg>
